<svg width="232" height="777" viewBox="0 0 232 777" fill="none" xmlns="http://www.w3.org/2000/svg">
<path fill-rule="evenodd" clip-rule="evenodd" d="M34.8284 353.059C29.4863 353.068 24.5517 355.916 21.8734 360.539L3.02142 393.073C0.330417 397.717 0.325915 403.445 3.00962 408.093L21.7121 440.487C24.3958 445.135 29.3587 447.996 34.7261 447.987L72.3277 447.928C77.6698 447.92 82.6043 445.071 85.2827 440.448L104.135 407.914C106.826 403.27 106.83 397.542 104.146 392.894L85.4439 360.5C82.7602 355.852 77.7974 352.992 72.43 353L34.8284 353.059ZM36.002 355.098C30.6598 355.106 25.7253 357.955 23.047 362.577L5.37847 393.069C2.68746 397.713 2.68296 403.441 5.36666 408.089L22.8921 438.444C25.5758 443.093 30.5387 445.953 35.9061 445.944L71.1471 445.889C76.4892 445.881 81.4238 443.032 84.1021 438.409L101.771 407.917C104.462 403.273 104.466 397.545 101.782 392.897L84.257 362.542C81.5733 357.894 76.6104 355.034 71.243 355.042L36.002 355.098Z" fill="#00B9BD"/>
<path fill-rule="evenodd" clip-rule="evenodd" d="M106.081 602.04C100.739 602.048 95.8044 604.897 93.1261 609.519L81.6448 629.333C78.9538 633.977 78.9493 639.705 81.633 644.354L93.0048 664.05C95.6885 668.699 100.651 671.559 106.019 671.55L128.919 671.514C134.261 671.506 139.196 668.657 141.874 664.035L153.355 644.221C156.046 639.576 156.051 633.848 153.367 629.2L141.995 609.504C139.311 604.855 134.349 601.995 128.981 602.004L106.081 602.04ZM106.94 603.532C101.598 603.541 96.6637 606.39 93.9854 611.012L83.3708 629.33C80.6798 633.974 80.6753 639.702 83.359 644.351L93.8688 662.554C96.5525 667.203 101.515 670.063 106.883 670.054L128.054 670.021C133.397 670.013 138.331 667.164 141.009 662.542L151.624 644.223C154.315 639.579 154.32 633.851 151.636 629.203L141.126 610.999C138.442 606.351 133.479 603.491 128.112 603.499L106.94 603.532Z" fill="#00B9BD"/>
<path fill-rule="evenodd" clip-rule="evenodd" d="M60.8284 427.059C55.4863 427.068 50.5517 429.916 47.8734 434.539L29.0214 467.073C26.3304 471.717 26.3259 477.445 29.0096 482.093L47.7121 514.487C50.3958 519.135 55.3587 521.996 60.7261 521.987L98.3277 521.928C103.67 521.92 108.604 519.071 111.283 514.448L130.135 481.914C132.826 477.27 132.83 471.542 130.146 466.894L111.444 434.5C108.76 429.852 103.797 426.992 98.43 427L60.8284 427.059ZM62.002 429.098C56.6598 429.106 51.7253 431.955 49.047 436.577L31.3785 467.069C28.6875 471.713 28.683 477.441 31.3667 482.089L48.8921 512.444C51.5758 517.093 56.5387 519.953 61.9061 519.944L97.1471 519.889C102.489 519.881 107.424 517.032 110.102 512.409L127.771 481.917C130.462 477.273 130.466 471.545 127.782 466.897L110.257 436.542C107.573 431.894 102.61 429.034 97.243 429.042L62.002 429.098Z" fill="#004853"/>
<path fill-rule="evenodd" clip-rule="evenodd" d="M62.8284 540.059C57.4863 540.068 52.5517 542.916 49.8734 547.539L31.0214 580.073C28.3304 584.717 28.3259 590.445 31.0096 595.093L49.7121 627.487C52.3958 632.135 57.3587 634.996 62.7261 634.987L100.328 634.928C105.67 634.92 110.604 632.071 113.283 627.448L132.135 594.914C134.826 590.27 134.83 584.542 132.146 579.894L113.444 547.5C110.76 542.852 105.797 539.992 100.43 540L62.8284 540.059ZM64.002 542.098C58.6598 542.106 53.7253 544.955 51.047 549.577L33.3785 580.069C30.6875 584.713 30.683 590.441 33.3667 595.089L50.8921 625.444C53.5758 630.093 58.5387 632.953 63.9061 632.944L99.1471 632.889C104.489 632.881 109.424 630.032 112.102 625.409L129.771 594.917C132.462 590.273 132.466 584.545 129.782 579.897L112.257 549.542C109.573 544.894 104.61 542.034 99.243 542.042L64.002 542.098Z" fill="#004853"/>
<path fill-rule="evenodd" clip-rule="evenodd" d="M108.877 706.037C103.535 706.046 98.6001 708.895 95.9218 713.517L84.0214 734.054C81.3304 738.698 81.3259 744.426 84.0096 749.075L95.7982 769.493C98.4819 774.141 103.445 777.002 108.812 776.993L132.548 776.956C137.89 776.947 142.825 774.098 145.503 769.476L157.404 748.939C160.095 744.295 160.099 738.567 157.415 733.918L145.627 713.5C142.943 708.852 137.98 705.992 132.613 706L108.877 706.037ZM109.754 707.561C104.412 707.569 99.4773 710.418 96.799 715.041L85.7832 734.051C83.0922 738.695 83.0877 744.423 85.7714 749.072L96.6802 767.966C99.3639 772.615 104.327 775.475 109.694 775.466L131.666 775.432C137.008 775.423 141.942 772.574 144.621 767.952L155.637 748.941C158.328 744.297 158.332 738.569 155.648 733.921L144.74 715.026C142.056 710.378 137.093 707.518 131.726 707.526L109.754 707.561Z" fill="#004853"/>
<path d="M173.763 254.628C176.376 259.288 176.313 264.985 173.599 269.586L140.084 326.4C137.357 331.023 132.368 333.837 127 333.778L61.3155 333.06C55.9484 333.001 51.0217 330.079 48.3964 325.398L16.1321 267.864C13.5191 263.205 13.5815 257.507 16.2957 252.906L49.8106 196.092C52.5378 191.469 57.5272 188.655 62.8943 188.714L128.579 189.433C133.946 189.491 138.873 192.413 141.498 197.095L173.763 254.628Z" fill="#BDBABA" fill-opacity="0.36"/>
<path d="M208.763 357.628C211.376 362.288 211.313 367.985 208.599 372.586L175.084 429.4C172.357 434.023 167.368 436.837 162 436.778L96.3155 436.06C90.9484 436.001 86.0217 433.079 83.3964 428.398L51.1321 370.864C48.5191 366.205 48.5815 360.507 51.2957 355.906L84.8106 299.092C87.5378 294.469 92.5272 291.655 97.8943 291.714L163.579 292.433C168.946 292.491 173.873 295.413 176.498 300.095L208.763 357.628Z" fill="#BDBABA" fill-opacity="0.36"/>
<path d="M138.898 428.253C141.511 432.912 141.449 438.61 138.734 443.211L111.502 489.375C108.775 493.998 103.785 496.811 98.4184 496.752L45.0643 496.169C39.6972 496.11 34.7705 493.188 32.1451 488.507L5.92904 441.758C3.31605 437.099 3.37837 431.401 6.09264 426.8L33.3249 380.636C36.0521 376.013 41.0415 373.2 46.4086 373.258L99.7627 373.842C105.13 373.901 110.056 376.823 112.682 381.504L138.898 428.253Z" fill="#BDBABA" fill-opacity="0.36"/>
<path d="M226.032 154.096C228.645 158.756 228.583 164.453 225.868 169.055L196.592 218.683C193.865 223.306 188.876 226.119 183.509 226.061L126.143 225.433C120.776 225.375 115.85 222.453 113.224 217.771L85.0408 167.514C82.4278 162.855 82.4901 157.157 85.2044 152.556L114.48 102.928C117.208 98.3048 122.197 95.4913 127.564 95.55L184.929 96.1774C190.296 96.2361 195.223 99.1581 197.849 103.84L226.032 154.096Z" fill="#BDBABA" fill-opacity="0.36"/>
<path d="M208.062 60.4423C210.675 65.1017 210.612 70.7993 207.898 75.4005L182.922 117.74C180.195 122.363 175.205 125.177 169.838 125.118L120.912 124.583C115.545 124.524 110.618 121.602 107.993 116.921L83.9481 74.0448C81.3351 69.3854 81.3975 63.6878 84.1117 59.0866L109.088 16.7469C111.815 12.124 116.805 9.31045 122.172 9.36915L171.098 9.90427C176.465 9.96298 181.392 12.8849 184.017 17.5664L208.062 60.4423Z" fill="#BDBABA" fill-opacity="0.36"/>
<path d="M156.038 505.602C158.651 510.261 158.589 515.959 155.874 520.56L139.265 548.716C136.538 553.339 131.548 556.152 126.181 556.094L93.6766 555.738C88.3095 555.679 83.3828 552.757 80.7575 548.076L64.7679 519.563C62.1549 514.904 62.2172 509.206 64.9315 504.605L81.5409 476.449C84.268 471.826 89.2574 469.013 94.6245 469.071L127.129 469.427C132.496 469.485 137.423 472.407 140.048 477.089L156.038 505.602Z" fill="#BDBABA" fill-opacity="0.36"/>
<path d="M120.177 562.983C122.79 567.642 122.727 573.34 120.013 577.941L108.182 597.996C105.455 602.619 100.466 605.433 95.0988 605.374L71.9732 605.121C66.6062 605.063 61.6795 602.141 59.0541 597.459L47.6649 577.15C45.0519 572.49 45.1143 566.793 47.8285 562.192L59.6592 542.137C62.3863 537.514 67.3757 534.7 72.7428 534.759L95.8684 535.012C101.235 535.07 106.162 537.992 108.788 542.674L120.177 562.983Z" fill="#BDBABA" fill-opacity="0.36"/>
<path fill-rule="evenodd" clip-rule="evenodd" d="M103.866 133.064C98.5239 133.115 93.6123 136.003 90.9711 140.647L56.5638 201.136C53.91 205.802 53.9513 211.53 56.6722 216.156L91.8048 275.899C94.5256 280.526 99.5112 283.346 104.878 283.295L174.466 282.629C179.808 282.577 184.719 279.689 187.361 275.046L221.768 214.556C224.422 209.89 224.38 204.162 221.66 199.536L186.527 139.793C183.806 135.166 178.821 132.346 173.453 132.397L103.866 133.064ZM105.749 136.275C100.407 136.326 95.4954 139.214 92.8541 143.858L60.2939 201.1C57.6402 205.766 57.6815 211.494 60.4023 216.12L93.6464 272.651C96.3672 277.278 101.353 280.098 106.72 280.047L172.572 279.417C177.914 279.365 182.825 276.477 185.467 271.834L218.027 214.591C220.681 209.925 220.639 204.198 217.918 199.571L184.674 143.04C181.954 138.413 176.968 135.593 171.601 135.644L105.749 136.275Z" fill="#F63700"/>
<path fill-rule="evenodd" clip-rule="evenodd" d="M103.866 133.064C98.5239 133.115 93.6123 136.003 90.9711 140.647L56.5638 201.136C53.91 205.802 53.9513 211.53 56.6722 216.156L91.8048 275.899C94.5256 280.526 99.5112 283.346 104.878 283.295L174.466 282.629C179.808 282.577 184.719 279.689 187.361 275.046L221.768 214.556C224.422 209.89 224.38 204.162 221.66 199.536L186.527 139.793C183.806 135.166 178.821 132.346 173.453 132.397L103.866 133.064ZM105.749 136.275C100.407 136.326 95.4954 139.214 92.8541 143.858L60.2939 201.1C57.6402 205.766 57.6815 211.494 60.4023 216.12L93.6464 272.651C96.3672 277.278 101.353 280.098 106.72 280.047L172.572 279.417C177.914 279.365 182.825 276.477 185.467 271.834L218.027 214.591C220.681 209.925 220.639 204.198 217.918 199.571L184.674 143.04C181.954 138.413 176.968 135.593 171.601 135.644L105.749 136.275Z" fill="#F63700"/>
<path fill-rule="evenodd" clip-rule="evenodd" d="M111.591 459.894C106.249 459.945 101.338 462.833 98.6966 467.477L70.477 517.088C67.8232 521.754 67.8646 527.482 70.5854 532.108L99.3913 581.093C102.112 585.719 107.098 588.54 112.465 588.488L169.538 587.942C174.88 587.891 179.792 585.002 182.433 580.359L210.652 530.747C213.306 526.082 213.265 520.354 210.544 515.727L181.738 466.743C179.017 462.116 174.032 459.296 168.665 459.348L111.591 459.894ZM113.203 462.642C107.861 462.694 102.95 465.582 100.308 470.225L73.6699 517.057C71.0162 521.723 71.0575 527.451 73.7783 532.077L100.968 578.313C103.688 582.939 108.674 585.76 114.041 585.708L167.917 585.193C173.259 585.141 178.17 582.253 180.812 577.61L207.45 530.777C210.104 526.112 210.063 520.384 207.342 515.757L180.152 469.522C177.432 464.896 172.446 462.075 167.079 462.127L113.203 462.642Z" fill="#F63700"/>
<path fill-rule="evenodd" clip-rule="evenodd" d="M90.3281 299.779C84.9862 299.83 80.0746 302.718 77.4333 307.362L53.418 349.582C50.7643 354.247 50.8056 359.975 53.5264 364.602L78.0336 406.276C80.7544 410.903 85.7399 413.723 91.1071 413.672L139.677 413.207C145.019 413.155 149.931 410.267 152.572 405.624L176.587 363.403C179.241 358.738 179.2 353.01 176.479 348.383L151.972 306.709C149.251 302.083 144.266 299.262 138.898 299.314L90.3281 299.779ZM91.7557 302.213C86.4138 302.264 81.5022 305.152 78.861 309.796L56.246 349.554C53.5922 354.22 53.6335 359.948 56.3543 364.574L79.4297 403.814C82.1505 408.44 87.1361 411.261 92.5033 411.209L138.241 410.772C143.583 410.72 148.495 407.832 151.136 403.189L173.751 363.43C176.405 358.765 176.364 353.037 173.643 348.41L150.567 309.171C147.847 304.544 142.861 301.724 137.494 301.775L91.7557 302.213Z" fill="#FB6900"/>
<path fill-rule="evenodd" clip-rule="evenodd" d="M139.603 637.808C134.261 637.859 129.349 640.747 126.708 645.391L108.767 676.931C106.113 681.597 106.155 687.325 108.875 691.951L127.172 723.064C129.892 727.691 134.878 730.511 140.245 730.46L176.53 730.112C181.872 730.061 186.783 727.173 189.425 722.529L207.365 690.988C210.019 686.323 209.978 680.595 207.257 675.968L188.961 644.856C186.24 640.229 181.255 637.409 175.887 637.46L139.603 637.808ZM140.764 639.788C135.422 639.839 130.51 642.727 127.869 647.371L111.068 676.909C108.414 681.575 108.455 687.302 111.176 691.929L128.307 721.061C131.028 725.688 136.014 728.508 141.381 728.457L175.362 728.131C180.704 728.08 185.615 725.192 188.256 720.548L205.058 691.01C207.712 686.345 207.671 680.617 204.95 675.99L187.818 646.858C185.098 642.232 180.112 639.411 174.745 639.463L140.764 639.788Z" fill="#FB6900"/>
</svg>
