<svg width="1358" height="980" viewBox="0 0 1358 980" fill="none" xmlns="http://www.w3.org/2000/svg">
<path d="M672.875 691.362C675.554 686.739 680.488 683.89 685.83 683.882L796.538 683.708C801.905 683.7 806.868 686.56 809.552 691.208L864.708 786.741C867.392 791.389 867.387 797.117 864.696 801.761L809.192 897.55C806.513 902.172 801.579 905.021 796.237 905.03L685.529 905.204C680.162 905.212 675.199 902.352 672.515 897.704L617.359 802.171C614.675 797.522 614.68 791.794 617.371 787.15L672.875 691.362Z" fill="#004853"/>
<path d="M482.559 591.285C485.237 586.663 490.172 583.814 495.514 583.806L595.726 583.648C601.094 583.64 606.057 586.5 608.74 591.148L658.663 677.617C661.347 682.265 661.342 687.993 658.651 692.637L608.409 779.345C605.73 783.967 600.796 786.816 595.454 786.825L495.241 786.982C489.874 786.99 484.911 784.13 482.227 779.482L432.305 693.013C429.621 688.365 429.625 682.637 432.316 677.993L482.559 591.285Z" fill="#007E80"/>
<path d="M619.195 822.471C621.808 827.131 621.746 832.828 619.031 837.43L551.674 951.614C548.946 956.236 543.957 959.05 538.59 958.991L406.482 957.546C401.115 957.488 396.188 954.566 393.563 949.884L328.719 834.254C326.106 829.595 326.168 823.897 328.882 819.296L396.24 705.112C398.967 700.489 403.957 697.676 409.324 697.734L541.432 699.179C546.799 699.238 551.725 702.16 554.351 706.841L619.195 822.471Z" fill="#BDBABA" fill-opacity="0.36"/>
<path d="M1013.21 732.291C1015.82 736.951 1015.76 742.648 1013.05 747.249L961.178 835.174C958.451 839.797 953.462 842.61 948.095 842.552L846.39 841.439C841.023 841.381 836.096 838.459 833.471 833.777L783.539 744.739C780.926 740.08 780.989 734.382 783.703 729.781L835.57 641.856C838.297 637.233 843.287 634.42 848.654 634.479L950.358 635.591C955.726 635.65 960.652 638.572 963.278 643.253L1013.21 732.291Z" fill="#BDBABA" fill-opacity="0.36"/>
<path d="M693.49 422.23C696.103 426.889 696.041 432.587 693.327 437.188L602.874 590.522C600.147 595.145 595.158 597.959 589.791 597.9L412.355 595.959C406.988 595.901 402.061 592.979 399.436 588.297L312.359 433.021C309.746 428.362 309.808 422.664 312.522 418.063L402.975 264.729C405.702 260.106 410.691 257.293 416.058 257.352L593.494 259.292C598.861 259.351 603.788 262.273 606.413 266.954L693.49 422.23Z" fill="#BDBABA" fill-opacity="0.36"/>
<path d="M661.798 491.786C664.439 487.142 669.351 484.254 674.693 484.203L764.718 483.341C770.085 483.289 775.071 486.11 777.792 490.736L823.257 568.049C825.978 572.676 826.019 578.404 823.365 583.069L778.853 661.325C776.211 665.969 771.3 668.857 765.958 668.908L675.932 669.77C670.565 669.821 665.579 667.001 662.859 662.374L617.393 585.061C614.673 580.435 614.631 574.707 617.285 570.041L661.798 491.786Z" fill="#F63700"/>
<path d="M956.804 588.387C962.146 588.389 967.084 591.232 969.768 595.851L1011.06 666.913C1013.76 671.554 1013.77 677.282 1011.09 681.933L970.242 752.884C967.564 757.536 962.605 760.402 957.237 760.4L875.049 760.371C869.707 760.369 864.769 757.526 862.085 752.907L820.793 681.845C818.097 677.205 818.085 671.477 820.763 666.825L861.612 595.874C864.29 591.223 869.249 588.356 874.616 588.358L956.804 588.387Z" fill="#00B9BD"/>
<path d="M997.992 438.271C1000.67 433.649 1005.6 430.8 1010.95 430.792L1115.14 430.628C1120.51 430.62 1125.47 433.48 1128.16 438.128L1180.06 528.037C1182.75 532.685 1182.74 538.413 1180.05 543.057L1127.81 633.211C1125.14 637.834 1120.2 640.682 1114.86 640.691L1010.66 640.855C1005.3 640.863 1000.33 638.003 997.649 633.355L945.74 543.446C943.057 538.798 943.061 533.07 945.752 528.425L997.992 438.271Z" fill="#004853"/>
<path d="M817.357 343.286C820.035 338.664 824.97 335.815 830.312 335.806L924.546 335.658C929.913 335.65 934.876 338.51 937.56 343.158L984.502 424.464C987.185 429.112 987.181 434.84 984.49 439.484L937.245 521.019C934.566 525.641 929.632 528.49 924.29 528.499L830.056 528.647C824.688 528.655 819.725 525.795 817.042 521.147L770.1 439.842C767.416 435.193 767.421 429.465 770.112 424.821L817.357 343.286Z" fill="#007E80"/>
<path d="M750.404 384.708C753.017 389.367 752.954 395.065 750.24 399.666L671.971 532.347C669.244 536.97 664.254 539.783 658.887 539.725L505.364 538.045C499.997 537.987 495.07 535.065 492.445 530.383L417.096 396.022C414.483 391.363 414.546 385.665 417.26 381.064L495.529 248.383C498.256 243.76 503.246 240.947 508.613 241.005L662.136 242.685C667.503 242.743 672.43 245.665 675.055 250.347L750.404 384.708Z" fill="#BDBABA" fill-opacity="0.36"/>
<path d="M1321.02 476.356C1323.63 481.015 1323.57 486.713 1320.85 491.314L1272.07 574.008C1269.35 578.631 1264.36 581.444 1258.99 581.386L1163.34 580.339C1157.97 580.281 1153.05 577.359 1150.42 572.677L1103.46 488.937C1100.85 484.277 1100.91 478.58 1103.62 473.978L1152.41 391.285C1155.13 386.662 1160.12 383.848 1165.49 383.907L1261.14 384.953C1266.5 385.012 1271.43 387.934 1274.06 392.615L1321.02 476.356Z" fill="#BDBABA" fill-opacity="0.36"/>
<path d="M1017.56 182.068C1020.18 186.728 1020.11 192.425 1017.4 197.026L931.996 341.802C929.269 346.425 924.28 349.238 918.913 349.18L751.386 347.347C746.019 347.289 741.092 344.367 738.467 339.685L656.25 193.076C653.637 188.417 653.699 182.719 656.414 178.118L741.818 33.3428C744.545 28.7198 749.534 25.9063 754.901 25.965L922.428 27.7973C927.795 27.856 932.721 30.778 935.347 35.4595L1017.56 182.068Z" fill="#BDBABA" fill-opacity="0.36"/>
<path fill-rule="evenodd" clip-rule="evenodd" d="M846.866 173.064C841.524 173.115 836.612 176.003 833.971 180.647L799.564 241.136C796.91 245.802 796.951 251.53 799.672 256.156L834.805 315.899C837.526 320.526 842.511 323.346 847.878 323.295L917.466 322.629C922.808 322.577 927.719 319.689 930.361 315.046L964.768 254.556C967.422 249.89 967.38 244.162 964.66 239.536L929.527 179.793C926.806 175.166 921.821 172.346 916.453 172.397L846.866 173.064ZM848.749 176.275C843.407 176.326 838.495 179.214 835.854 183.858L803.294 241.1C800.64 245.766 800.681 251.494 803.402 256.12L836.646 312.651C839.367 317.278 844.353 320.098 849.72 320.047L915.572 319.417C920.914 319.365 925.825 316.477 928.467 311.834L961.027 254.591C963.681 249.926 963.639 244.198 960.918 239.571L927.674 183.04C924.954 178.413 919.968 175.593 914.601 175.644L848.749 176.275Z" fill="#F63700"/>
<path fill-rule="evenodd" clip-rule="evenodd" d="M942.757 194.034C937.415 194.085 932.503 196.974 929.862 201.617L860.06 324.333C857.406 328.998 857.448 334.726 860.169 339.353L931.491 460.635C934.212 465.262 939.197 468.082 944.565 468.031L1085.74 466.68C1091.08 466.629 1095.99 463.74 1098.63 459.097L1168.43 336.381C1171.09 331.716 1171.05 325.988 1168.32 321.361L1097 200.079C1094.28 195.452 1089.3 192.632 1083.93 192.683L942.757 194.034ZM946.191 199.891C940.849 199.942 935.938 202.83 933.296 207.474L866.863 324.267C864.21 328.932 864.251 334.66 866.972 339.287L934.85 454.712C937.571 459.339 942.556 462.159 947.923 462.108L1082.28 460.822C1087.62 460.771 1092.54 457.882 1095.18 453.239L1161.61 336.446C1164.26 331.78 1164.22 326.052 1161.5 321.426L1093.62 206C1090.9 201.374 1085.92 198.553 1080.55 198.605L946.191 199.891Z" fill="#00B9BD"/>
<path fill-rule="evenodd" clip-rule="evenodd" d="M416.866 18.0636C411.524 18.1147 406.612 21.003 403.971 25.6466L369.564 86.1365C366.91 90.8019 366.951 96.5298 369.672 101.156L404.805 160.899C407.526 165.526 412.511 168.346 417.878 168.295L487.466 167.629C492.808 167.577 497.719 164.689 500.361 160.046L534.768 99.5557C537.422 94.8902 537.38 89.1623 534.66 84.5357L499.527 24.7931C496.806 20.1664 491.821 17.3461 486.453 17.3975L416.866 18.0636ZM418.749 21.2746C413.407 21.3258 408.495 24.2141 405.854 28.8576L373.294 86.1003C370.64 90.7657 370.681 96.4936 373.402 101.12L406.646 157.651C409.367 162.278 414.353 165.098 419.72 165.047L485.572 164.417C490.914 164.365 495.825 161.477 498.467 156.834L531.027 99.591C533.681 94.9255 533.639 89.1976 530.918 84.571L497.674 28.0399C494.954 23.4132 489.968 20.5929 484.601 20.6443L418.749 21.2746Z" fill="#00B9BD"/>
<path fill-rule="evenodd" clip-rule="evenodd" d="M489.281 275.399C483.939 275.45 479.027 278.339 476.386 282.982L429.736 364.996C427.082 369.662 427.123 375.389 429.844 380.016L477.495 461.046C480.215 465.672 485.201 468.493 490.568 468.441L584.917 467.538C590.259 467.487 595.17 464.599 597.812 459.955L644.462 377.941C647.116 373.276 647.074 367.548 644.354 362.921L596.703 281.892C593.982 277.265 588.997 274.445 583.629 274.496L489.281 275.399ZM491.7 279.525C486.358 279.577 481.447 282.465 478.805 287.108L434.529 364.95C431.875 369.615 431.916 375.343 434.637 379.97L479.861 456.872C482.582 461.499 487.567 464.319 492.935 464.268L582.483 463.411C587.825 463.36 592.737 460.471 595.378 455.828L639.655 377.987C642.309 373.321 642.267 367.593 639.546 362.967L594.322 286.064C591.602 281.437 586.616 278.617 581.249 278.668L491.7 279.525Z" fill="#004853"/>
<path d="M987.481 248.85C990.122 244.206 995.034 241.318 1000.38 241.267L1084.94 240.457C1090.31 240.406 1095.29 243.226 1098.01 247.853L1140.72 320.472C1143.44 325.098 1143.48 330.826 1140.83 335.492L1099.01 409.001C1096.37 413.645 1091.46 416.533 1086.12 416.584L1001.55 417.394C996.187 417.445 991.202 414.625 988.481 409.998L945.776 337.379C943.055 332.753 943.014 327.025 945.668 322.359L987.481 248.85Z" fill="#F63700"/>
<path d="M1267.26 340.156C1272.6 340.158 1277.54 343.001 1280.22 347.619L1318.97 414.305C1321.67 418.946 1321.68 424.674 1319 429.325L1280.67 495.902C1277.99 500.554 1273.03 503.42 1267.67 503.418L1190.54 503.39C1185.2 503.389 1180.26 500.546 1177.58 495.927L1138.83 429.241C1136.13 424.6 1136.12 418.872 1138.8 414.221L1177.13 347.644C1179.8 342.993 1184.76 340.126 1190.13 340.128L1267.26 340.156Z" fill="#00B9BD"/>
<path fill-rule="evenodd" clip-rule="evenodd" d="M98.7972 96.3871C93.4553 96.4383 88.5437 99.3266 85.9025 103.97L3.24061 249.294C0.586841 253.96 0.628167 259.688 3.34897 264.314L87.8205 407.957C90.5413 412.584 95.5269 415.404 100.894 415.353L268.075 413.752C273.417 413.701 278.329 410.813 280.97 406.169L363.632 260.845C366.286 256.18 366.244 250.452 363.523 245.825L279.052 102.182C276.331 97.5558 271.345 94.7355 265.978 94.7868L98.7972 96.3871ZM102.796 103.205C97.4536 103.256 92.542 106.144 89.9007 110.788L11.1605 249.217C8.50678 253.883 8.54811 259.611 11.2689 264.237L91.7307 401.062C94.4515 405.688 99.437 408.509 104.804 408.457L264.054 406.933C269.396 406.882 274.307 403.993 276.949 399.35L355.689 260.92C358.343 256.255 358.301 250.527 355.581 245.9L275.119 109.076C272.398 104.449 267.412 101.629 262.045 101.68L102.796 103.205Z" fill="#F63700"/>
<path fill-rule="evenodd" clip-rule="evenodd" d="M507.708 451.951C502.366 452.002 497.454 454.891 494.813 459.534L464.506 512.815C461.853 517.48 461.894 523.208 464.615 527.835L495.554 580.448C498.275 585.074 503.261 587.895 508.628 587.843L569.922 587.256C575.264 587.205 580.176 584.317 582.817 579.673L613.123 526.393C615.777 521.727 615.736 515.999 613.015 511.373L582.075 458.76C579.355 454.133 574.369 451.313 569.002 451.364L507.708 451.951ZM509.411 454.856C504.069 454.907 499.158 457.795 496.516 462.439L467.88 512.782C465.227 517.447 465.268 523.175 467.989 527.802L497.22 577.51C499.941 582.136 504.927 584.957 510.294 584.905L568.209 584.351C573.551 584.3 578.462 581.412 581.104 576.768L609.739 526.425C612.393 521.759 612.352 516.031 609.631 511.405L580.4 461.697C577.679 457.07 572.693 454.25 567.326 454.301L509.411 454.856Z" fill="#FB6900"/>
<path d="M505.908 375.239C508.549 370.596 513.461 367.707 518.803 367.656L575.876 367.11C581.243 367.058 586.229 369.879 588.949 374.505L617.755 423.49C620.476 428.116 620.517 433.844 617.864 438.51L589.644 488.121C587.003 492.765 582.091 495.653 576.749 495.704L519.676 496.25C514.309 496.302 509.323 493.482 506.603 488.855L477.797 439.871C475.076 435.244 475.034 429.516 477.688 424.851L505.908 375.239Z" fill="#F63700"/>
</svg>
