<svg width="418" height="415" viewBox="0 0 418 415" fill="none" xmlns="http://www.w3.org/2000/svg">
<path d="M198.072 8.30711C202.656 5.56337 208.353 5.46451 213.029 8.04756L376.747 98.4836C381.446 101.079 384.399 105.987 384.492 111.353L387.727 297.757C387.82 303.124 385.039 308.131 380.434 310.888L219.952 406.95C215.368 409.694 209.671 409.793 204.995 407.21L41.2768 316.774C36.5786 314.178 33.625 309.27 33.5319 303.904L30.2971 117.5C30.204 112.133 32.9854 107.126 37.5908 104.369L198.072 8.30711Z" fill="#007E80"/>
<path fill-rule="evenodd" clip-rule="evenodd" d="M132.606 56.0447C127.264 56.0531 122.329 58.902 119.651 63.5242L41.4604 198.464C38.7694 203.108 38.7649 208.836 41.4486 213.484L119.167 348.097C121.851 352.745 126.814 355.605 132.181 355.597L288.137 355.351C293.479 355.343 298.414 352.494 301.092 347.872L379.282 212.933C381.973 208.288 381.978 202.56 379.294 197.912L301.576 63.2996C298.892 58.6512 293.929 55.7911 288.562 55.7996L132.606 56.0447ZM136.309 62.477C130.967 62.4854 126.032 65.3343 123.354 69.9565L48.8984 198.451C46.2074 203.095 46.2029 208.823 48.8866 213.471L122.891 341.651C125.575 346.299 130.537 349.159 135.905 349.15L284.412 348.917C289.754 348.909 294.689 346.06 297.367 341.438L371.823 212.943C374.514 208.299 374.518 202.571 371.835 197.923L297.83 69.7436C295.146 65.0953 290.184 62.2352 284.816 62.2436L136.309 62.477Z" fill="#F63700"/>
<path d="M305.417 132.83L319.625 123.383L322.713 128.028C323.739 129.57 324.19 130.94 324.067 132.138C323.949 133.343 323.265 134.36 322.016 135.191C321.352 135.632 320.638 135.835 319.873 135.799C319.115 135.759 318.379 135.507 317.667 135.042C317.963 135.953 317.955 136.83 317.644 137.675C317.344 138.522 316.778 139.222 315.945 139.776C314.67 140.624 313.394 140.877 312.116 140.535C310.838 140.193 309.697 139.268 308.693 137.758L305.417 132.83ZM313.308 130.285L308.194 133.685L310.251 136.779C310.831 137.65 311.512 138.187 312.294 138.39C313.086 138.595 313.88 138.433 314.673 137.905C316.384 136.768 316.621 135.269 315.384 133.408L313.308 130.285ZM314.811 129.286L316.692 132.116C317.237 132.936 317.877 133.453 318.611 133.669C319.35 133.891 320.071 133.768 320.773 133.301C321.554 132.782 321.968 132.178 322.017 131.489C322.072 130.795 321.79 129.984 321.172 129.053L319.329 126.282L314.811 129.286ZM318.886 150.824C317.593 150.67 316.494 149.914 315.59 148.554C314.842 147.429 314.596 146.354 314.853 145.329C315.121 144.307 315.893 143.366 317.17 142.507L324.04 137.94L325.241 139.745L318.42 144.28C316.819 145.344 316.452 146.527 317.317 147.828C318.234 149.207 319.358 149.783 320.688 149.555L328.368 144.448L329.569 146.254L319.01 153.274L317.868 151.557L318.886 150.824ZM331.521 142.057C330.955 142.433 330.346 142.547 329.694 142.399C329.048 142.247 328.529 141.875 328.135 141.282C327.737 140.684 327.596 140.055 327.711 139.397C327.831 138.745 328.171 138.233 328.731 137.861C329.29 137.489 329.9 137.369 330.561 137.502C331.226 137.642 331.757 138.011 332.155 138.609C332.553 139.208 332.686 139.837 332.553 140.498C332.424 141.165 332.08 141.685 331.521 142.057ZM329.373 138.827C329.067 139.03 328.875 139.313 328.797 139.674C328.723 140.043 328.791 140.386 329.003 140.705C329.211 141.017 329.496 141.213 329.857 141.291C330.219 141.37 330.559 141.303 330.878 141.091C331.197 140.879 331.393 140.589 331.468 140.221C331.553 139.854 331.489 139.512 331.277 139.193C331.061 138.868 330.767 138.674 330.397 138.61C330.027 138.547 329.685 138.619 329.373 138.827ZM331.32 151.661C332.835 151.808 334.018 152.522 334.87 153.804C336.354 156.035 335.843 157.998 333.339 159.691L326.361 164.331L325.161 162.525L332.148 157.88C332.905 157.367 333.351 156.817 333.486 156.23C333.625 155.65 333.455 154.998 332.975 154.276C332.585 153.691 332.088 153.281 331.481 153.046C330.875 152.811 330.236 152.739 329.564 152.829L322.04 157.832L320.84 156.026L335.829 146.06L337.029 147.865L331.32 151.661Z" fill="#F9F8F8"/>
<path d="M81.7559 170.793L96.5521 173.244L87.5418 161.255L89.0551 158.76L103.644 167.609L102.477 169.532L96.7956 166.087L90.773 162.187L99.6811 174.141L98.7876 175.614L84.1056 173.247L90.323 176.757L96.0041 180.203L94.8372 182.127L80.2487 173.278L81.7559 170.793ZM99.7091 161.645C98.647 161.001 97.8174 160.214 97.2203 159.285C96.6272 158.35 96.3251 157.372 96.3139 156.351C96.3068 155.323 96.593 154.332 97.1723 153.377C98.0678 151.9 99.302 151.018 100.875 150.729C102.452 150.434 104.089 150.801 105.786 151.83L105.916 151.909C106.971 152.549 107.796 153.329 108.391 154.246C108.983 155.154 109.283 156.127 109.293 157.165C109.307 158.197 109.018 159.2 108.426 160.175C107.535 161.645 106.301 162.527 104.724 162.823C103.151 163.111 101.523 162.745 99.8393 161.724L99.7091 161.645ZM101.06 159.915C102.262 160.644 103.396 160.952 104.46 160.84C105.528 160.72 106.346 160.193 106.914 159.258C107.485 158.316 107.571 157.345 107.173 156.345C106.768 155.341 105.9 154.435 104.571 153.629C103.382 152.908 102.248 152.608 101.169 152.731C100.087 152.842 99.2626 153.365 98.6953 154.3C98.1402 155.215 98.0566 156.174 98.4443 157.177C98.8321 158.18 99.7039 159.092 101.06 159.915ZM106.842 149.908C105.179 148.899 104.082 147.695 103.551 146.295C103.014 144.891 103.132 143.551 103.906 142.275C104.676 141.006 105.72 140.264 107.038 140.049L101.387 136.621L102.511 134.768L117.902 144.103L116.868 145.806L115.651 145.191C116.11 146.484 115.938 147.791 115.136 149.114C114.374 150.37 113.238 151.083 111.727 151.254C110.221 151.418 108.639 150.998 106.982 149.993L106.842 149.908ZM108.177 148.182C109.406 148.927 110.522 149.257 111.524 149.171C112.527 149.085 113.3 148.594 113.843 147.699C114.556 146.523 114.549 145.345 113.821 144.163L108.842 141.143C107.483 141.077 106.456 141.619 105.759 142.768C105.208 143.677 105.129 144.597 105.523 145.53C105.916 146.463 106.801 147.347 108.177 148.182ZM120.873 139.203L119.749 141.057L104.359 131.722L105.483 129.868L120.873 139.203ZM123.9 134.213L122.776 136.067L111.935 129.491L113.059 127.637L123.9 134.213ZM108.968 127.897C108.667 127.715 108.468 127.471 108.37 127.165C108.277 126.852 108.339 126.515 108.558 126.155C108.777 125.794 109.047 125.583 109.367 125.521C109.688 125.46 109.998 125.521 110.299 125.703C110.599 125.885 110.793 126.131 110.88 126.439C110.967 126.748 110.901 127.082 110.682 127.443C110.463 127.804 110.197 128.017 109.883 128.082C109.574 128.141 109.268 128.079 108.968 127.897ZM113.764 120.554L116.389 122.147L117.617 120.123L119.05 120.992L117.822 123.016L124.545 127.094C124.98 127.357 125.362 127.466 125.691 127.419C126.015 127.368 126.308 127.126 126.571 126.692C126.701 126.478 126.839 126.16 126.986 125.737L128.489 126.649C128.326 127.217 128.106 127.732 127.826 128.193C127.324 129.021 126.694 129.494 125.938 129.611C125.182 129.728 124.343 129.507 123.421 128.947L116.698 124.869L115.501 126.843L114.068 125.974L115.265 124L112.64 122.408L113.764 120.554ZM130.044 112.131C131.7 113.136 132.802 114.325 133.349 115.699C133.889 117.068 133.77 118.394 132.992 119.676C132.161 121.046 131.035 121.811 129.613 121.971L130.81 122.821L129.777 124.524L114.387 115.189L115.511 113.336L121.253 116.818C120.778 115.507 120.94 114.193 121.738 112.877C122.536 111.561 123.66 110.831 125.109 110.687C126.562 110.536 128.153 110.985 129.883 112.034L130.044 112.131ZM128.709 113.857C127.447 113.092 126.323 112.744 125.34 112.814C124.356 112.885 123.586 113.377 123.031 114.292C122.29 115.515 122.325 116.738 123.136 117.961L127.825 120.805C129.305 120.926 130.41 120.385 131.139 119.183C131.678 118.295 131.754 117.395 131.365 116.483C130.977 115.571 130.092 114.696 128.709 113.857ZM140.826 106.309C140.548 106.286 140.114 106.142 139.526 105.876C139.898 107.281 139.722 108.581 138.997 109.777C138.348 110.846 137.515 111.542 136.496 111.865C135.475 112.178 134.501 112.052 133.572 111.489C132.443 110.805 131.827 109.846 131.725 108.614C131.62 107.372 132.039 105.972 132.983 104.416L134.077 102.612L133.225 102.096C132.577 101.703 131.946 101.585 131.33 101.741C130.707 101.894 130.167 102.347 129.709 103.102C129.308 103.763 129.139 104.419 129.202 105.069C129.264 105.719 129.532 106.188 130.007 106.476L128.876 108.339C128.335 108.011 127.93 107.505 127.66 106.82C127.387 106.125 127.302 105.361 127.405 104.528C127.513 103.688 127.805 102.874 128.283 102.086C129.041 100.837 129.949 100.049 131.006 99.7217C132.057 99.3905 133.138 99.5437 134.25 100.182L139.239 103.208C140.235 103.812 141.103 104.165 141.845 104.268L142.005 104.365L140.826 106.309ZM137.548 108.528C137.9 107.947 138.084 107.305 138.099 106.601C138.115 105.898 137.953 105.283 137.614 104.758L135.39 103.409L134.508 104.861C133.131 107.133 133.107 108.671 134.436 109.478C135.017 109.83 135.589 109.912 136.151 109.723C136.713 109.534 137.179 109.136 137.548 108.528Z" fill="white"/>
<path d="M146.008 331.395C144.078 330.84 142.672 330.16 141.789 329.355C140.914 328.543 140.477 327.543 140.477 326.355C140.477 325.012 141.012 323.902 142.082 323.027C143.16 322.145 144.559 321.703 146.277 321.703C147.449 321.703 148.492 321.93 149.406 322.383C150.328 322.836 151.039 323.461 151.539 324.258C152.047 325.055 152.301 325.926 152.301 326.871H150.039C150.039 325.84 149.711 325.031 149.055 324.445C148.398 323.852 147.473 323.555 146.277 323.555C145.168 323.555 144.301 323.801 143.676 324.293C143.059 324.777 142.75 325.453 142.75 326.32C142.75 327.016 143.043 327.605 143.629 328.09C144.223 328.566 145.227 329.004 146.641 329.402C148.062 329.801 149.172 330.242 149.969 330.727C150.773 331.203 151.367 331.762 151.75 332.402C152.141 333.043 152.336 333.797 152.336 334.664C152.336 336.047 151.797 337.156 150.719 337.992C149.641 338.82 148.199 339.234 146.395 339.234C145.223 339.234 144.129 339.012 143.113 338.566C142.098 338.113 141.312 337.496 140.758 336.715C140.211 335.934 139.938 335.047 139.938 334.055H142.199C142.199 335.086 142.578 335.902 143.336 336.504C144.102 337.098 145.121 337.395 146.395 337.395C147.582 337.395 148.492 337.152 149.125 336.668C149.758 336.184 150.074 335.523 150.074 334.688C150.074 333.852 149.781 333.207 149.195 332.754C148.609 332.293 147.547 331.84 146.008 331.395ZM165.602 332.801C165.602 334.73 165.16 336.285 164.277 337.465C163.395 338.645 162.199 339.234 160.691 339.234C159.152 339.234 157.941 338.746 157.059 337.77V343.875H154.891V326.32H156.871L156.977 327.727C157.859 326.633 159.086 326.086 160.656 326.086C162.18 326.086 163.383 326.66 164.266 327.809C165.156 328.957 165.602 330.555 165.602 332.602V332.801ZM163.434 332.555C163.434 331.125 163.129 329.996 162.52 329.168C161.91 328.34 161.074 327.926 160.012 327.926C158.699 327.926 157.715 328.508 157.059 329.672V335.73C157.707 336.887 158.699 337.465 160.035 337.465C161.074 337.465 161.898 337.055 162.508 336.234C163.125 335.406 163.434 334.18 163.434 332.555ZM167.793 332.543C167.793 331.301 168.035 330.184 168.52 329.191C169.012 328.199 169.691 327.434 170.559 326.895C171.434 326.355 172.43 326.086 173.547 326.086C175.273 326.086 176.668 326.684 177.73 327.879C178.801 329.074 179.336 330.664 179.336 332.648V332.801C179.336 334.035 179.098 335.145 178.621 336.129C178.152 337.105 177.477 337.867 176.594 338.414C175.719 338.961 174.711 339.234 173.57 339.234C171.852 339.234 170.457 338.637 169.387 337.441C168.324 336.246 167.793 334.664 167.793 332.695V332.543ZM169.973 332.801C169.973 334.207 170.297 335.336 170.945 336.188C171.602 337.039 172.477 337.465 173.57 337.465C174.672 337.465 175.547 337.035 176.195 336.176C176.844 335.309 177.168 334.098 177.168 332.543C177.168 331.152 176.836 330.027 176.172 329.168C175.516 328.301 174.641 327.867 173.547 327.867C172.477 327.867 171.613 328.293 170.957 329.145C170.301 329.996 169.973 331.215 169.973 332.801ZM184.41 339H182.242V321H184.41V339ZM193.152 339.234C191.434 339.234 190.035 338.672 188.957 337.547C187.879 336.414 187.34 334.902 187.34 333.012V332.613C187.34 331.355 187.578 330.234 188.055 329.25C188.539 328.258 189.211 327.484 190.07 326.93C190.938 326.367 191.875 326.086 192.883 326.086C194.531 326.086 195.812 326.629 196.727 327.715C197.641 328.801 198.098 330.355 198.098 332.379V333.281H189.508C189.539 334.531 189.902 335.543 190.598 336.316C191.301 337.082 192.191 337.465 193.27 337.465C194.035 337.465 194.684 337.309 195.215 336.996C195.746 336.684 196.211 336.27 196.609 335.754L197.934 336.785C196.871 338.418 195.277 339.234 193.152 339.234ZM192.883 327.867C192.008 327.867 191.273 328.188 190.68 328.828C190.086 329.461 189.719 330.352 189.578 331.5H195.93V331.336C195.867 330.234 195.57 329.383 195.039 328.781C194.508 328.172 193.789 327.867 192.883 327.867ZM205.703 337.465C206.477 337.465 207.152 337.23 207.73 336.762C208.309 336.293 208.629 335.707 208.691 335.004H210.742C210.703 335.73 210.453 336.422 209.992 337.078C209.531 337.734 208.914 338.258 208.141 338.648C207.375 339.039 206.562 339.234 205.703 339.234C203.977 339.234 202.602 338.66 201.578 337.512C200.562 336.355 200.055 334.777 200.055 332.777V332.414C200.055 331.18 200.281 330.082 200.734 329.121C201.188 328.16 201.836 327.414 202.68 326.883C203.531 326.352 204.535 326.086 205.691 326.086C207.113 326.086 208.293 326.512 209.23 327.363C210.176 328.215 210.68 329.32 210.742 330.68H208.691C208.629 329.859 208.316 329.188 207.754 328.664C207.199 328.133 206.512 327.867 205.691 327.867C204.59 327.867 203.734 328.266 203.125 329.062C202.523 329.852 202.223 330.996 202.223 332.496V332.906C202.223 334.367 202.523 335.492 203.125 336.281C203.727 337.07 204.586 337.465 205.703 337.465ZM205.199 322.992L206.957 321H208.832V321.117L205.855 324.328H204.531L201.59 321.117V321H203.43L205.199 322.992ZM218.441 339.234C216.723 339.234 215.324 338.672 214.246 337.547C213.168 336.414 212.629 334.902 212.629 333.012V332.613C212.629 331.355 212.867 330.234 213.344 329.25C213.828 328.258 214.5 327.484 215.359 326.93C216.227 326.367 217.164 326.086 218.172 326.086C219.82 326.086 221.102 326.629 222.016 327.715C222.93 328.801 223.387 330.355 223.387 332.379V333.281H214.797C214.828 334.531 215.191 335.543 215.887 336.316C216.59 337.082 217.48 337.465 218.559 337.465C219.324 337.465 219.973 337.309 220.504 336.996C221.035 336.684 221.5 336.27 221.898 335.754L223.223 336.785C222.16 338.418 220.566 339.234 218.441 339.234ZM218.172 327.867C217.297 327.867 216.562 328.188 215.969 328.828C215.375 329.461 215.008 330.352 214.867 331.5H221.219V331.336C221.156 330.234 220.859 329.383 220.328 328.781C219.797 328.172 219.078 327.867 218.172 327.867ZM227.957 326.32L228.027 327.914C228.996 326.695 230.262 326.086 231.824 326.086C234.504 326.086 235.855 327.598 235.879 330.621V339H233.711V330.609C233.703 329.695 233.492 329.02 233.078 328.582C232.672 328.145 232.035 327.926 231.168 327.926C230.465 327.926 229.848 328.113 229.316 328.488C228.785 328.863 228.371 329.355 228.074 329.965V339H225.906V326.32H227.957ZM246.531 335.637C246.531 335.051 246.309 334.598 245.863 334.277C245.426 333.949 244.656 333.668 243.555 333.434C242.461 333.199 241.59 332.918 240.941 332.59C240.301 332.262 239.824 331.871 239.512 331.418C239.207 330.965 239.055 330.426 239.055 329.801C239.055 328.762 239.492 327.883 240.367 327.164C241.25 326.445 242.375 326.086 243.742 326.086C245.18 326.086 246.344 326.457 247.234 327.199C248.133 327.941 248.582 328.891 248.582 330.047H246.402C246.402 329.453 246.148 328.941 245.641 328.512C245.141 328.082 244.508 327.867 243.742 327.867C242.953 327.867 242.336 328.039 241.891 328.383C241.445 328.727 241.223 329.176 241.223 329.73C241.223 330.254 241.43 330.648 241.844 330.914C242.258 331.18 243.004 331.434 244.082 331.676C245.168 331.918 246.047 332.207 246.719 332.543C247.391 332.879 247.887 333.285 248.207 333.762C248.535 334.23 248.699 334.805 248.699 335.484C248.699 336.617 248.246 337.527 247.34 338.215C246.434 338.895 245.258 339.234 243.812 339.234C242.797 339.234 241.898 339.055 241.117 338.695C240.336 338.336 239.723 337.836 239.277 337.195C238.84 336.547 238.621 335.848 238.621 335.098H240.789C240.828 335.824 241.117 336.402 241.656 336.832C242.203 337.254 242.922 337.465 243.812 337.465C244.633 337.465 245.289 337.301 245.781 336.973C246.281 336.637 246.531 336.191 246.531 335.637ZM254.465 323.25V326.32H256.832V327.996H254.465V335.859C254.465 336.367 254.57 336.75 254.781 337.008C254.992 337.258 255.352 337.383 255.859 337.383C256.109 337.383 256.453 337.336 256.891 337.242V339C256.32 339.156 255.766 339.234 255.227 339.234C254.258 339.234 253.527 338.941 253.035 338.355C252.543 337.77 252.297 336.938 252.297 335.859V327.996H249.988V326.32H252.297V323.25H254.465ZM263.559 336.059L266.699 326.32H268.914L264.367 339H262.715L258.121 326.32H260.336L263.559 336.059ZM273.355 339H271.176V326.32H273.355V339ZM273.379 321.012H276.004L272.863 324.457H271.117L273.379 321.012Z" fill="white"/>
</svg>
