<svg width="409" height="408" viewBox="0 0 409 408" fill="none" xmlns="http://www.w3.org/2000/svg">
<path d="M195.633 5.70895C200.246 3.01517 205.944 2.9782 210.591 5.61189L371.928 97.0341C376.598 99.6802 379.498 104.62 379.533 109.987L380.732 294.823C380.767 300.19 377.931 305.167 373.296 307.874L213.159 401.382C208.546 404.076 202.848 404.113 198.2 401.479L36.8634 310.057C32.1936 307.41 29.2936 302.471 29.2588 297.104L28.0595 112.268C28.0247 106.9 30.8604 101.923 35.4954 99.2169L195.633 5.70895Z" fill="#004853"/>
<path fill-rule="evenodd" clip-rule="evenodd" d="M126.914 57.7297C121.572 57.7808 116.661 60.6691 114.019 65.3126L36.5014 201.594C33.8476 206.259 33.889 211.987 36.6098 216.614L115.822 351.313C118.543 355.939 123.528 358.76 128.895 358.708L285.673 357.208C291.015 357.156 295.927 354.268 298.568 349.625L376.086 213.344C378.74 208.678 378.698 202.95 375.978 198.324L296.766 63.6246C294.045 58.9979 289.059 56.1776 283.692 56.2289L126.914 57.7297ZM130.687 64.1628C125.345 64.2139 120.433 67.1022 117.792 71.7457L43.9746 201.521C41.3208 206.186 41.3621 211.914 44.0829 216.541L119.511 344.806C122.232 349.433 127.218 352.253 132.585 352.202L281.879 350.773C287.22 350.721 292.132 347.833 294.773 343.19L368.591 213.414C371.245 208.749 371.203 203.021 368.482 198.394L293.054 70.1293C290.333 65.5026 285.348 62.6823 279.981 62.7337L130.687 64.1628Z" fill="#FB6900"/>
<path d="M165.668 99.1602H175.43V101H163.008V99.3125L172.359 85.7891H163.16V83.9375H175.055V85.5898L165.668 99.1602ZM185.836 101C185.711 100.75 185.609 100.305 185.531 99.6641C184.523 100.711 183.32 101.234 181.922 101.234C180.672 101.234 179.645 100.883 178.84 100.18C178.043 99.4688 177.645 98.5703 177.645 97.4844C177.645 96.1641 178.145 95.1406 179.145 94.4141C180.152 93.6797 181.566 93.3125 183.387 93.3125H185.496V92.3164C185.496 91.5586 185.27 90.957 184.816 90.5117C184.363 90.0586 183.695 89.832 182.812 89.832C182.039 89.832 181.391 90.0273 180.867 90.418C180.344 90.8086 180.082 91.2812 180.082 91.8359H177.902C177.902 91.2031 178.125 90.5938 178.57 90.0078C179.023 89.4141 179.633 88.9453 180.398 88.6016C181.172 88.2578 182.02 88.0859 182.941 88.0859C184.402 88.0859 185.547 88.4531 186.375 89.1875C187.203 89.9141 187.633 90.918 187.664 92.1992V98.0352C187.664 99.1992 187.812 100.125 188.109 100.812V101H185.836ZM182.238 99.3477C182.918 99.3477 183.562 99.1719 184.172 98.8203C184.781 98.4688 185.223 98.0117 185.496 97.4492V94.8477H183.797C181.141 94.8477 179.812 95.625 179.812 97.1797C179.812 97.8594 180.039 98.3906 180.492 98.7734C180.945 99.1562 181.527 99.3477 182.238 99.3477ZM184.242 83H186.867L183.727 86.4453H181.98L184.242 83ZM201.797 94.8008C201.797 96.7383 201.352 98.2969 200.461 99.4766C199.57 100.648 198.375 101.234 196.875 101.234C195.273 101.234 194.035 100.668 193.16 99.5352L193.055 101H191.062V83H193.23V89.7148C194.105 88.6289 195.312 88.0859 196.852 88.0859C198.391 88.0859 199.598 88.668 200.473 89.832C201.355 90.9961 201.797 92.5898 201.797 94.6133V94.8008ZM199.629 94.5547C199.629 93.0781 199.344 91.9375 198.773 91.1328C198.203 90.3281 197.383 89.9258 196.312 89.9258C194.883 89.9258 193.855 90.5898 193.23 91.918V97.4023C193.895 98.7305 194.93 99.3945 196.336 99.3945C197.375 99.3945 198.184 98.9922 198.762 98.1875C199.34 97.3828 199.629 96.1719 199.629 94.5547ZM212.367 101C212.242 100.75 212.141 100.305 212.062 99.6641C211.055 100.711 209.852 101.234 208.453 101.234C207.203 101.234 206.176 100.883 205.371 100.18C204.574 99.4688 204.176 98.5703 204.176 97.4844C204.176 96.1641 204.676 95.1406 205.676 94.4141C206.684 93.6797 208.098 93.3125 209.918 93.3125H212.027V92.3164C212.027 91.5586 211.801 90.957 211.348 90.5117C210.895 90.0586 210.227 89.832 209.344 89.832C208.57 89.832 207.922 90.0273 207.398 90.418C206.875 90.8086 206.613 91.2812 206.613 91.8359H204.434C204.434 91.2031 204.656 90.5938 205.102 90.0078C205.555 89.4141 206.164 88.9453 206.93 88.6016C207.703 88.2578 208.551 88.0859 209.473 88.0859C210.934 88.0859 212.078 88.4531 212.906 89.1875C213.734 89.9141 214.164 90.918 214.195 92.1992V98.0352C214.195 99.1992 214.344 100.125 214.641 100.812V101H212.367ZM208.77 99.3477C209.449 99.3477 210.094 99.1719 210.703 98.8203C211.312 98.4688 211.754 98.0117 212.027 97.4492V94.8477H210.328C207.672 94.8477 206.344 95.625 206.344 97.1797C206.344 97.8594 206.57 98.3906 207.023 98.7734C207.477 99.1562 208.059 99.3477 208.77 99.3477ZM221.59 98.0586L224.73 88.3203H226.945L222.398 101H220.746L216.152 88.3203H218.367L221.59 98.0586ZM236.672 101C236.547 100.75 236.445 100.305 236.367 99.6641C235.359 100.711 234.156 101.234 232.758 101.234C231.508 101.234 230.48 100.883 229.676 100.18C228.879 99.4688 228.48 98.5703 228.48 97.4844C228.48 96.1641 228.98 95.1406 229.98 94.4141C230.988 93.6797 232.402 93.3125 234.223 93.3125H236.332V92.3164C236.332 91.5586 236.105 90.957 235.652 90.5117C235.199 90.0586 234.531 89.832 233.648 89.832C232.875 89.832 232.227 90.0273 231.703 90.418C231.18 90.8086 230.918 91.2812 230.918 91.8359H228.738C228.738 91.2031 228.961 90.5938 229.406 90.0078C229.859 89.4141 230.469 88.9453 231.234 88.6016C232.008 88.2578 232.855 88.0859 233.777 88.0859C235.238 88.0859 236.383 88.4531 237.211 89.1875C238.039 89.9141 238.469 90.918 238.5 92.1992V98.0352C238.5 99.1992 238.648 100.125 238.945 100.812V101H236.672ZM233.074 99.3477C233.754 99.3477 234.398 99.1719 235.008 98.8203C235.617 98.4688 236.059 98.0117 236.332 97.4492V94.8477H234.633C231.977 94.8477 230.648 95.625 230.648 97.1797C230.648 97.8594 230.875 98.3906 231.328 98.7734C231.781 99.1562 232.363 99.3477 233.074 99.3477Z" fill="white"/>
<path d="M83.9222 247.011C82.4604 247.822 81.0464 248.285 79.6805 248.399C78.3214 248.51 77.1048 248.274 76.0306 247.691C74.9564 247.107 74.0857 246.215 73.4185 245.012C72.7665 243.837 72.4754 242.636 72.545 241.409C72.6215 240.179 73.0523 239.015 73.8375 237.918C74.6333 236.824 75.731 235.88 77.1307 235.085L78.2066 234.488C79.6411 233.692 81.0467 233.239 82.4232 233.127C83.7998 233.015 85.0305 233.253 86.1153 233.839C87.2107 234.428 88.0845 235.311 88.7365 236.486C89.3998 237.681 89.6933 238.894 89.6168 240.125C89.5509 241.359 89.1045 242.527 88.2776 243.629C87.4576 244.727 86.32 245.68 84.8649 246.487L83.9222 247.011ZM83.7994 244.519C85.5687 243.537 86.7276 242.429 87.2761 241.196C87.8314 239.959 87.7546 238.701 87.0457 237.424C86.3558 236.18 85.3371 235.464 83.9895 235.273C82.6526 235.086 81.1382 235.448 79.4463 236.36L78.3499 236.969C76.6353 237.92 75.4851 239.027 74.8994 240.291C74.3244 241.557 74.3875 242.822 75.0888 244.086C75.7938 245.356 76.8008 246.084 78.1097 246.269C79.4254 246.45 80.9531 246.072 82.6927 245.133L83.7994 244.519ZM84.9399 258.36C85.4522 258.076 85.7404 257.662 85.8044 257.117C85.879 256.575 85.7516 255.766 85.422 254.689C85.0963 253.619 84.9195 252.72 84.8918 251.994C84.8679 251.275 84.9782 250.669 85.2228 250.176C85.4712 249.689 85.8686 249.294 86.4151 248.991C87.3237 248.487 88.3045 248.443 89.3575 248.859C90.4143 249.283 91.2744 250.092 91.9378 251.287C92.6353 252.544 92.8756 253.742 92.6588 254.881C92.4457 256.027 91.8337 256.88 90.8227 257.441L89.7651 255.535C90.2842 255.247 90.6085 254.777 90.7378 254.124C90.8709 253.479 90.7517 252.821 90.3803 252.152C89.9974 251.462 89.5476 251.006 89.031 250.783C88.5144 250.56 88.0135 250.584 87.5285 250.853C87.0708 251.107 86.8263 251.479 86.7949 251.97C86.7636 252.461 86.9036 253.237 87.2149 254.297C87.5301 255.364 87.7038 256.273 87.736 257.023C87.7683 257.774 87.6538 258.405 87.3925 258.916C87.1418 259.43 86.7193 259.852 86.125 260.182C85.1345 260.732 84.1188 260.777 83.0779 260.318C82.0439 259.856 81.1762 258.992 80.4749 257.729C79.9821 256.841 79.7033 255.968 79.6385 255.11C79.5737 254.253 79.7133 253.474 80.0574 252.774C80.4121 252.077 80.9173 251.546 81.5731 251.182L82.6251 253.078C82.0087 253.465 81.6435 253.998 81.5293 254.678C81.4258 255.361 81.5901 256.091 82.0222 256.87C82.4202 257.587 82.8821 258.082 83.4078 258.353C83.9442 258.627 84.4549 258.629 84.9399 258.36ZM99.6203 259.287L96.9356 260.777L98.0842 262.847L96.6189 263.66L95.4703 261.59L88.5946 265.406C88.1506 265.652 87.8671 265.93 87.744 266.239C87.6277 266.545 87.6928 266.92 87.9392 267.364C88.0605 267.583 88.2683 267.86 88.5625 268.198L87.0255 269.05C86.6122 268.628 86.2747 268.18 86.0131 267.709C85.5431 266.862 85.4448 266.081 85.7184 265.367C85.9919 264.652 86.6 264.033 87.5427 263.51L94.4184 259.694L93.2982 257.676L94.7635 256.863L95.8837 258.881L98.5683 257.392L99.6203 259.287ZM100.591 271.373C100.479 271.06 100.331 270.736 100.145 270.401C99.4552 269.158 98.4577 268.608 97.1524 268.752L89.2829 273.118L88.2309 271.223L99.318 265.07L100.342 266.915L99.0777 267.656C100.413 267.728 101.397 268.335 102.031 269.476C102.235 269.845 102.343 270.151 102.353 270.395L100.591 271.373ZM95.7479 284.769C95.9058 284.539 96.2459 284.234 96.7682 283.855C95.3638 283.481 94.3224 282.683 93.6438 281.46C93.0373 280.367 92.8462 279.299 93.0706 278.254C93.3056 277.212 93.8979 276.428 94.8474 275.901C96.0019 275.26 97.1394 275.201 98.2599 275.723C99.391 276.248 100.398 277.306 101.281 278.897L102.305 280.742L103.176 280.259C103.839 279.891 104.255 279.401 104.424 278.789C104.6 278.173 104.474 277.479 104.046 276.707C103.671 276.03 103.185 275.558 102.59 275.29C101.994 275.022 101.454 275.022 100.969 275.291L99.9115 273.386C100.465 273.078 101.106 272.977 101.834 273.083C102.573 273.191 103.279 273.496 103.951 273.999C104.627 274.508 105.188 275.166 105.635 275.972C106.344 277.25 106.579 278.429 106.338 279.509C106.105 280.586 105.435 281.448 104.33 282.097L99.2274 284.929C98.2095 285.494 97.472 286.073 97.0149 286.666L96.851 286.757L95.7479 284.769ZM95.4471 280.822C95.7769 281.416 96.2433 281.894 96.8464 282.256C97.4495 282.619 98.0633 282.783 98.6878 282.749L100.963 281.487L100.138 280.001C98.8493 277.678 97.5252 276.894 96.1657 277.649C95.5714 277.978 95.2168 278.434 95.102 279.016C94.9871 279.598 95.1021 280.2 95.4471 280.822ZM102.795 291.406L112.834 289.427L113.908 291.364L100.615 293.54L99.8134 292.096L108.672 281.927L109.746 283.863L102.795 291.406ZM107.541 306.021C107.699 305.79 108.039 305.486 108.561 305.106C107.157 304.733 106.115 303.935 105.437 302.712C104.83 301.619 104.639 300.55 104.863 299.506C105.098 298.464 105.691 297.68 106.64 297.153C107.795 296.512 108.932 296.453 110.053 296.975C111.184 297.499 112.191 298.558 113.074 300.149L114.098 301.994L114.969 301.511C115.631 301.143 116.047 300.653 116.217 300.041C116.393 299.425 116.267 298.731 115.839 297.959C115.464 297.282 114.978 296.81 114.383 296.542C113.787 296.274 113.247 296.274 112.762 296.543L111.704 294.637C112.258 294.33 112.899 294.229 113.627 294.335C114.366 294.443 115.072 294.748 115.744 295.251C116.419 295.76 116.981 296.418 117.428 297.224C118.137 298.502 118.371 299.68 118.131 300.761C117.898 301.838 117.228 302.7 116.123 303.349L111.02 306.181C110.002 306.746 109.265 307.325 108.808 307.918L108.644 308.009L107.541 306.021ZM107.24 302.074C107.57 302.668 108.036 303.146 108.639 303.508C109.242 303.871 109.856 304.035 110.481 304.001L112.755 302.739L111.931 301.253C110.642 298.93 109.318 298.146 107.959 298.901C107.364 299.23 107.01 299.686 106.895 300.268C106.78 300.85 106.895 301.452 107.24 302.074Z" fill="white"/>
<path d="M299.631 279.848L310.029 284.994C311.468 285.714 312.423 286.753 312.893 288.111C313.367 289.461 313.279 290.934 312.628 292.53L312.384 293.076C311.556 294.749 310.444 295.86 309.049 296.407C307.654 296.954 306.161 296.843 304.572 296.074L294.153 290.919L295.14 288.923L305.497 294.048C306.603 294.595 307.615 294.717 308.533 294.412C309.443 294.105 310.177 293.387 310.735 292.26C311.3 291.118 311.427 290.096 311.116 289.192C310.808 288.282 310.101 287.553 308.995 287.005L298.628 281.875L299.631 279.848ZM293.269 282.401L294.433 280.048L296.128 284.391L295.354 285.956L293.269 282.401ZM303.536 274.916L306.288 276.278L307.338 274.156L308.84 274.9L307.79 277.021L314.837 280.509C315.293 280.734 315.682 280.809 316.007 280.734C316.325 280.656 316.596 280.39 316.821 279.934C316.932 279.71 317.043 279.381 317.153 278.948L318.728 279.727C318.615 280.308 318.439 280.84 318.2 281.323C317.771 282.191 317.184 282.716 316.441 282.897C315.697 283.078 314.842 282.93 313.876 282.452L306.828 278.964L305.804 281.033L304.302 280.29L305.326 278.221L302.575 276.859L303.536 274.916ZM322.374 272.889C321.611 274.429 320.487 275.433 319.001 275.9C317.507 276.364 315.913 276.177 314.219 275.338L313.862 275.162C312.734 274.604 311.835 273.893 311.164 273.029C310.49 272.155 310.094 271.21 309.978 270.194C309.859 269.167 310.023 268.202 310.47 267.299C311.201 265.821 312.256 264.914 313.634 264.576C315.013 264.239 316.609 264.519 318.423 265.416L319.231 265.816L315.422 273.515C316.556 274.041 317.624 274.164 318.625 273.884C319.623 273.594 320.362 272.965 320.84 271.999C321.179 271.313 321.327 270.662 321.282 270.048C321.238 269.433 321.073 268.832 320.788 268.247L322.299 267.517C323.291 269.194 323.316 270.984 322.374 272.889ZM312.066 268.089C311.678 268.873 311.639 269.673 311.95 270.49C312.254 271.302 312.889 272.027 313.856 272.662L316.673 266.969L316.526 266.896C315.511 266.464 314.616 266.352 313.842 266.562C313.06 266.768 312.468 267.277 312.066 268.089ZM318.572 255.84C318.377 256.11 318.195 256.417 318.025 256.76C317.395 258.034 317.509 259.167 318.37 260.16L326.436 264.151L325.474 266.094L314.11 260.471L315.046 258.58L316.374 259.198C315.674 258.059 315.613 256.904 316.192 255.735C316.379 255.357 316.57 255.094 316.765 254.946L318.572 255.84ZM328.169 253.489L320.96 246.628L321.989 244.548L332.847 255.608C334.387 257.251 334.777 258.843 334.014 260.383L333.801 260.735L333.306 261.392L331.73 260.613L332.032 260.108C332.358 259.45 332.478 258.873 332.392 258.377C332.309 257.875 331.974 257.329 331.384 256.741L330.442 255.739L317.197 254.232L318.247 252.11L328.169 253.489ZM315.428 245.812L316.592 243.459L318.287 247.802L317.513 249.367L315.428 245.812Z" fill="white"/>
</svg>
