<svg width="225" height="306" viewBox="0 0 225 306" fill="none" xmlns="http://www.w3.org/2000/svg">
<path d="M178.113 254.338C175.322 258.892 170.319 261.619 164.978 261.495L124.143 260.552C118.777 260.428 113.886 257.446 111.318 252.733L91.8726 217.047C89.3044 212.334 89.4502 206.608 92.2549 202.031L113.599 167.206C116.391 162.651 121.394 159.925 126.735 160.049L167.569 160.992C172.935 161.116 177.826 164.098 180.394 168.811L199.84 204.497C202.408 209.21 202.262 214.936 199.457 219.512L178.113 254.338Z" fill="#F63700"/>
<path d="M6.55265 94.4606C3.90343 89.8216 3.92134 84.1238 6.59969 79.5015L41.4867 19.2945C44.1777 14.6504 49.145 11.7981 54.5124 11.815L123.813 12.033C129.18 12.0498 134.129 14.9333 136.791 19.5942L171.299 80.0195C173.948 84.6585 173.93 90.3564 171.252 94.9786L136.365 155.186C133.674 159.83 128.706 162.682 123.339 162.665L54.0387 162.447C48.6713 162.43 43.722 159.547 41.0602 154.886L6.55265 94.4606Z" fill="#007E80"/>
<path fill-rule="evenodd" clip-rule="evenodd" d="M122.894 305.057C128.236 305.137 133.217 302.371 135.972 297.794L166.231 247.525C168.999 242.927 169.099 237.199 166.493 232.507L138.131 181.434C135.525 176.742 130.61 173.8 125.244 173.718L66.5769 172.832C61.2353 172.752 56.254 175.518 53.499 180.095L23.2401 230.364C20.472 234.963 20.372 240.69 22.9779 245.382L51.3401 296.455C53.9459 301.147 58.8604 304.09 64.2272 304.171L122.894 305.057ZM121.317 302.209C126.659 302.29 131.64 299.524 134.395 294.947L162.969 247.476C165.738 242.878 165.838 237.151 163.232 232.458L136.451 184.233C133.845 179.541 128.931 176.599 123.564 176.518L68.1632 175.681C62.8217 175.6 57.8403 178.366 55.0853 182.943L26.511 230.414C23.743 235.013 23.643 240.74 26.2488 245.432L53.0295 293.657C55.6353 298.349 60.5498 301.292 65.9166 301.373L121.317 302.209Z" fill="#00B9BD"/>
<path fill-rule="evenodd" clip-rule="evenodd" d="M49.8658 82.0636C44.5239 82.1147 39.6123 85.003 36.9711 89.6466L2.56379 150.136C-0.0899733 154.802 -0.0486512 160.53 2.67215 165.156L37.8048 224.899C40.5256 229.526 45.5112 232.346 50.8783 232.295L120.466 231.629C125.808 231.577 130.719 228.689 133.361 224.046L167.768 163.556C170.422 158.89 170.38 153.162 167.66 148.536L132.527 88.7931C129.806 84.1664 124.821 81.3461 119.453 81.3975L49.8658 82.0636ZM51.7489 85.2746C46.407 85.3258 41.4954 88.2141 38.8541 92.8576L6.29394 150.1C3.64017 154.766 3.6815 160.494 6.4023 165.12L39.6464 221.651C42.3672 226.278 47.3527 229.098 52.7199 229.047L118.572 228.417C123.914 228.365 128.825 225.477 131.467 220.834L164.027 163.591C166.681 158.926 166.639 153.198 163.918 148.571L130.674 92.0399C127.954 87.4132 122.968 84.5929 117.601 84.6443L51.7489 85.2746Z" fill="#F63700"/>
<path fill-rule="evenodd" clip-rule="evenodd" d="M151.767 23.3847C146.425 23.4358 141.514 26.3242 138.873 30.9677L129.217 47.9433C126.563 52.6087 126.604 58.3366 129.325 62.9633L139.15 79.6707C141.871 84.2974 146.856 87.1177 152.224 87.0663L171.752 86.8794C177.094 86.8283 182.006 83.9399 184.647 79.2964L194.303 62.3208C196.957 57.6554 196.915 51.9275 194.195 47.3008L184.37 30.5934C181.649 25.9667 176.663 23.1464 171.296 23.1977L151.767 23.3847ZM152.565 24.7458C147.224 24.797 142.312 27.6853 139.671 32.3288L130.798 47.9279C128.144 52.5934 128.185 58.3212 130.906 62.9479L139.931 78.294C142.651 82.9207 147.637 85.741 153.004 85.6897L170.949 85.5179C176.291 85.4668 181.203 82.5784 183.844 77.9349L192.717 62.3358C195.371 57.6703 195.33 51.9425 192.609 47.3158L183.584 31.9697C180.863 27.343 175.878 24.5227 170.511 24.5741L152.565 24.7458Z" fill="#004853"/>
<path d="M110.079 79.5676C112.758 74.9453 117.692 72.0964 123.034 72.088L163.88 72.0238C169.247 72.0154 174.21 74.8755 176.894 79.5238L197.214 114.719C199.898 119.367 199.893 125.096 197.202 129.74L176.724 165.081C174.045 169.703 169.111 172.552 163.769 172.56L122.923 172.625C117.556 172.633 112.593 169.773 109.909 165.125L89.5891 129.929C86.9054 125.281 86.9099 119.553 89.6009 114.909L110.079 79.5676Z" fill="#00B9BD"/>
<path d="M156.332 141.28C159.01 136.658 163.945 133.809 169.287 133.8L181.583 133.781C186.95 133.772 191.913 136.633 194.597 141.281L200.681 151.819C203.364 156.467 203.36 162.195 200.669 166.839L194.504 177.478C191.826 182.1 186.891 184.949 181.549 184.957L169.253 184.977C163.886 184.985 158.923 182.125 156.239 177.477L150.155 166.939C147.472 162.291 147.476 156.563 150.167 151.919L156.332 141.28Z" fill="#004853"/>
<path d="M59.0792 145.568C61.7576 140.945 66.6921 138.096 72.0342 138.088L112.88 138.024C118.247 138.015 123.21 140.875 125.894 145.524L146.214 180.719C148.898 185.367 148.893 191.096 146.202 195.74L125.724 231.081C123.045 235.703 118.111 238.552 112.769 238.56L71.9231 238.625C66.5557 238.633 61.5928 235.773 58.9091 231.125L38.5891 195.929C35.9054 191.281 35.9099 185.553 38.6009 180.909L59.0792 145.568Z" fill="#FB6900"/>
</svg>
